<svg class="icon" style="width: 1em;height: 1em;vertical-align: middle;fill: currentColor;overflow: hidden;" viewBox="0 0 1024 1024" version="1.1" xmlns="http://www.w3.org/2000/svg" p-id="3188"><path d="M880.3 160.21h-736a32 32 0 0 0-32 32v672a32 32 0 0 0 32 32h736a32 32 0 0 0 32-32v-672a32 32 0 0 0-32-32z m-24 680h-688v-408h688z m0-464h-688v-160h688z" fill="#ADD8E6"></path><path d="M240.3 264.21h48q8 0 8 8v48q0 8-8 8h-48q-8 0-8-8v-48q0-8 8-8z m128 0h48q8 0 8 8v48q0 8-8 8h-48q-8 0-8-8v-48q0-8 8-8z m-120 432h192q16 0 16 16v24q0 16-16 16h-192q-16 0-16-16v-24q0-16 16-16z m0-104h192q16 0 16 16v24q0 16-16 16h-192q-16 0-16-16v-24q0-16 16-16z m0-96h192q16 0 16 16v24q0 16-16 16h-192q-16 0-16-16v-24q0-16 16-16z" fill="#ADD8E6"></path></svg>